<?xml version="1.0" encoding="utf-8"?>
<!-- Generator: Adobe Illustrator 18.1.1, SVG Export Plug-In . SVG Version: 6.00 Build 0)  -->
<svg version="1.1"
	 id="Layer_1" xmlns:rdf="http://www.w3.org/1999/02/22-rdf-syntax-ns#" xmlns:cc="http://creativecommons.org/ns#" xmlns:dc="http://purl.org/dc/elements/1.1/" xmlns:inkscape="http://www.inkscape.org/namespaces/inkscape" xmlns:svg="http://www.w3.org/2000/svg" xmlns:sodipodi="http://sodipodi.sourceforge.net/DTD/sodipodi-0.dtd"
	 xmlns="http://www.w3.org/2000/svg" xmlns:xlink="http://www.w3.org/1999/xlink" x="0px" y="0px" viewBox="0 0 960 560"
	 enable-background="new 0 0 960 560" xml:space="preserve">
<g transform="translate(0,-952.36218)">
	<path d="M371.2,1010.5c-3,0.3-5.8,1.7-8,3.8l-80.6,76c-5.4,5.1-5.7,13.6-0.6,19c0.2,0.2,0.4,0.4,0.6,0.6l80.6,76.2
		c5.1,5.4,13.6,5.7,19,0.6s5.7-13.6,0.6-19c-0.4-0.4-0.7-0.7-1.1-1.1l-55.9-52.9h221.3c61.6,0,107.5,44.5,107.5,103
		c0,58.3-46,103-107.5,103h-89.6c-7.4-0.1-13.5,5.8-13.6,13.2c-0.1,7.4,5.8,13.5,13.2,13.6c0.1,0,0.3,0,0.4,0h89.6
		c74.9,0,134.4-57.2,134.4-129.9c0-72.9-59.5-129.9-134.4-129.9H325.6l56.1-53.1c5.5-5,5.8-13.5,0.7-19
		C379.6,1011.6,375.4,1010,371.2,1010.5z"/>
</g>
</svg>
