<?xml version="1.0" encoding="utf-8"?>
<!-- Generator: Adobe Illustrator 18.1.1, SVG Export Plug-In . SVG Version: 6.00 Build 0)  -->
<svg version="1.1" id="Layer_1" xmlns="http://www.w3.org/2000/svg" xmlns:xlink="http://www.w3.org/1999/xlink" x="0px" y="0px"
	 viewBox="0 0 477.5 410.8" enable-background="new 0 0 477.5 410.8" xml:space="preserve">
<g>
	<defs>
		<rect id="SVGID_1_" x="-166.2" y="-193.8" width="801" height="799"/>
	</defs>
	<clipPath id="SVGID_2_">
		<use xlink:href="#SVGID_1_"  overflow="visible"/>
	</clipPath>
	<g clip-path="url(#SVGID_2_)">
		<path fill="#B2243B" d="M406.9,17.7C387.7,7.2,365.8,1.1,342.3,1.1c-41.5,0-78.5,18.9-103,48.5v360.1c0,0,207.2-130.2,230.2-233.5
			c4.3-12.9,6.6-26.8,6.6-41.2C476.1,84.5,448.2,40.7,406.9,17.7z"/>
		<path fill="#DD3E51" d="M136.1,1.1c-23.3,0-45.3,6.1-64.5,16.6C30.2,40.6,2.3,84.5,2.3,135c0,14.4,2.4,28.3,6.6,41.2
			c22.9,103.3,230.3,233.5,230.3,233.5V49.6C214.6,20,177.6,1.1,136.1,1.1z"/>
	</g>
</g>
</svg>
