<?xml version="1.0" encoding="utf-8"?>
<!-- Generator: Adobe Illustrator 18.1.1, SVG Export Plug-In . SVG Version: 6.00 Build 0)  -->
<svg version="1.1" id="Layer_1" xmlns="http://www.w3.org/2000/svg" xmlns:xlink="http://www.w3.org/1999/xlink" x="0px" y="0px"
	 viewBox="0 0 652.2 147.6" enable-background="new 0 0 652.2 147.6" xml:space="preserve">
<path class="join" d="M49.4,144c4-2.4,6.9-4.8,8.8-7.2c5.3-6.7,8-16.1,8-28.4V0.2H47.4v108.2c0,7.7-1.3,13.2-3.8,16.4c-0.7,0.9-1.7,1.8-3.2,2.7
	c-1.5,0.9-3.9,1.3-7.2,1.3c-1.3,0-2.8-0.1-4.4-0.3s-3.1-0.9-4.6-2.2c-1.5-1.3-2.7-3.3-3.7-6.1s-1.5-6.7-1.5-11.8v-9.6H0.2v9.6
	c0,12.3,2.7,21.7,8,28.4c2,2.4,5,4.8,9,7.2c4,2.4,9.3,3.6,16,3.6C40,147.6,45.4,146.4,49.4,144z"/>
<path class="join" d="M133.3,143.6c4.2-2.5,7.4-5.1,9.5-7.8c5.6-7.2,8.4-17.3,8.4-30.4V42c0-13.1-2.8-23.2-8.4-30.4c-2.1-2.7-5.3-5.3-9.5-7.8
	c-4.2-2.5-9.9-3.8-17.1-3.8c-3.6,0-6.8,0.4-9.6,1.1c-2.8,0.7-5.3,1.7-7.5,2.8C96.9,5,95,6.3,93.5,7.6c-1.5,1.3-2.8,2.7-3.9,4
	C84,18.8,81.2,28.9,81.2,42v63.4c0,13.1,2.8,23.2,8.4,30.4c2.1,2.7,5.3,5.3,9.6,7.8c4.3,2.5,9.9,3.8,17,3.8
	C123.4,147.4,129.1,146.1,133.3,143.6z M121,19.4c1.9,0.3,3.7,1.1,5.4,2.5c1.7,1.4,3.2,3.7,4.3,6.8c1.1,3.1,1.7,7.6,1.7,13.3v63.4
	c0,5.9-0.6,10.4-1.7,13.5c-1.1,3.1-2.6,5.4-4.3,6.8c-1.7,1.4-3.5,2.2-5.4,2.5c-1.9,0.3-3.5,0.4-4.8,0.4c-1.5,0-3.1-0.1-4.9-0.4
	c-1.8-0.3-3.6-1.1-5.3-2.5c-1.7-1.4-3.2-3.7-4.3-6.8c-1.1-3.1-1.7-7.6-1.7-13.5V42c0-5.7,0.6-10.2,1.7-13.3c1.1-3.1,2.6-5.4,4.3-6.8
	c1.7-1.4,3.5-2.2,5.3-2.5c1.8-0.3,3.4-0.4,4.9-0.4C117.5,19,119.1,19.1,121,19.4z"/>
<path class="join" d="M187,147.6V0.2h-18.8v147.4H187L187,147.6L187,147.6z"/>
<path class="join" d="M221.4,58.2l36,89.2h16V0h-19v89.2L218.4,0h-15.8v147.4h18.8V58.2L221.4,58.2z"/>
<path class="join" d="M368,58.2l36,89.2h16V0h-19v89.2L365,0h-15.8v147.4H368V58.2L368,58.2z"/>
<path class="join" d="M486.3,143.6c4.2-2.5,7.4-5.1,9.5-7.8c5.6-7.2,8.4-17.3,8.4-30.4V42c0-13.1-2.8-23.2-8.4-30.4c-2.1-2.7-5.3-5.3-9.5-7.8
	c-4.2-2.5-9.9-3.8-17.1-3.8c-3.6,0-6.8,0.4-9.6,1.1c-2.8,0.7-5.3,1.7-7.5,2.8c-2.2,1.1-4.1,2.4-5.6,3.7c-1.5,1.3-2.8,2.7-3.9,4
	c-5.6,7.2-8.4,17.3-8.4,30.4v63.4c0,13.1,2.8,23.2,8.4,30.4c2.1,2.7,5.3,5.3,9.6,7.8c4.3,2.5,9.9,3.8,17,3.8
	C476.4,147.4,482.1,146.1,486.3,143.6z M474,19.4c1.9,0.3,3.7,1.1,5.4,2.5c1.7,1.4,3.2,3.7,4.3,6.8c1.1,3.1,1.7,7.6,1.7,13.3v63.4
	c0,5.9-0.6,10.4-1.7,13.5c-1.1,3.1-2.6,5.4-4.3,6.8c-1.7,1.4-3.5,2.2-5.4,2.5c-1.9,0.3-3.5,0.4-4.8,0.4c-1.5,0-3.1-0.1-4.9-0.4
	c-1.8-0.3-3.6-1.1-5.3-2.5c-1.7-1.4-3.2-3.7-4.3-6.8c-1.1-3.1-1.7-7.6-1.7-13.5V42c0-5.7,0.6-10.2,1.7-13.3c1.1-3.1,2.6-5.4,4.3-6.8
	c1.7-1.4,3.5-2.2,5.3-2.5c1.8-0.3,3.4-0.4,4.9-0.4C470.5,19,472.1,19.1,474,19.4z"/>
<path class="join" d="M632.8,0.2l-20.8,94l-20.6-94h-15.2l-20.8,94l-20.8-94h-19.4l32.6,147.4H563l20.8-94.2l20.6,94.2h15.2L652.2,0.2H632.8
	L632.8,0.2z"/>
</svg>
