<?xml version="1.0" encoding="utf-8"?>
<!-- Generator: Adobe Illustrator 18.1.1, SVG Export Plug-In . SVG Version: 6.00 Build 0)  -->
<svg version="1.1" id="Layer_1" xmlns="http://www.w3.org/2000/svg" xmlns:xlink="http://www.w3.org/1999/xlink" x="0px" y="0px"
	 viewBox="0 0 652.2 147.6" enable-background="new 0 0 652.2 147.6" xml:space="preserve">
<path fill="#231F20" d="M146.1,74c0.3-0.4,0.6-0.7,0.9-1c5.9-7.1,8.8-17.4,8.8-31c0-13.7-2.9-24-8.8-30.8C140.6,3.7,131.1,0,118.4,0
	H87.8v147.4h18.8v-63h2.4h9.4c12.5,0,18.8,6.5,18.8,19.4v43.6h19v-43.6c0-6.1-1-11.6-2.9-16.4c-1.9-4.8-4.7-8.9-8.3-12.4
	C145.4,74.7,145.8,74.4,146.1,74z M109,65.4h-2.4V19h11.8c3.1,0,5.8,0.3,8.1,0.8c2.3,0.5,4.3,1.6,5.8,3.3c1.5,1.7,2.7,4,3.5,7
	s1.2,7,1.2,11.9c0,8.8-1.5,15.1-4.4,18.8c-0.5,0.7-1.8,1.6-3.7,2.8c-1.9,1.2-5.4,1.8-10.5,1.8H109z
	M232.2,19V0.2h-61v147.4h61v-18.8H190V83.2h42.2V64.4H190V19H232.2L232.2,19z
	M297.6,143.7c4.1-2.6,7.3-5.2,9.4-7.9c5.7-7.3,8.6-17.5,8.6-30.4V96h-19v9.4c0,8.5-1.5,14.8-4.4,18.8
	c-0.8,0.9-2,1.9-3.7,3c-1.7,1.1-4.3,1.6-7.9,1.6c-3.6,0-6.3-0.5-8-1.6c-1.7-1.1-2.9-2.1-3.6-3c-3.1-3.9-4.6-10.1-4.6-18.8V42.2
	c0-5.7,0.6-10.2,1.7-13.4c1.1-3.2,2.6-5.5,4.3-6.9c1.7-1.4,3.5-2.2,5.3-2.5c1.8-0.3,3.4-0.4,4.9-0.4c1.3,0,2.9,0.1,4.8,0.4
	c1.9,0.3,3.6,1.1,5.3,2.5c1.7,1.4,3.1,3.7,4.2,6.9c1.1,3.2,1.7,7.7,1.7,13.4v9.4h19v-9.4c0-12.9-2.9-23.1-8.6-30.4
	c-2.1-2.7-5.3-5.3-9.4-7.8c-4.1-2.5-9.8-3.8-17-3.8c-7.2,0-12.9,1.3-17.1,3.8c-4.2,2.5-7.4,5.1-9.5,7.8c-5.6,7.2-8.4,17.3-8.4,30.4
	v63.2c0,13.1,2.8,23.2,8.4,30.4c1.1,1.3,2.4,2.7,3.9,4.1c1.5,1.4,3.4,2.7,5.6,3.8c2.2,1.1,4.7,2.1,7.5,2.8c2.8,0.7,6,1.1,9.6,1.1
	C287.8,147.6,293.4,146.3,297.6,143.7z
	M384.2,19V0.2h-61v147.4h61v-18.8H342V83.2h42.2V64.4H342V19H384.2L384.2,19z
	M416.4,58.2l36,89.2h16V0h-19v89.2L413.4,0h-15.8v147.4h18.8V58.2L416.4,58.2z
	M566,0h-83.4v19h32.2v128.4h19V19H566V0L566,0z"/>
</svg>
